<?xml version="1.0" encoding="UTF-8"?>

<!DOCTYPE svg PUBLIC '-//W3C//DTD SVG 1.0//EN' 'http://www.w3.org/TR/2001/REC-SVG-20010904/DTD/svg10.dtd'>
<svg style="fill-opacity:1; color-rendering:auto; color-interpolation:auto; stroke:black; text-rendering:auto; stroke-linecap:square; stroke-miterlimit:10; stroke-opacity:1; shape-rendering:auto; fill:black; stroke-dasharray:none; font-weight:normal; stroke-width:1; font-family:&apos;Dialog&apos;; font-style:normal; stroke-linejoin:miter; font-size:12; stroke-dashoffset:0; image-rendering:auto;" xmlns="http://www.w3.org/2000/svg" width="946" xmlns:xlink="http://www.w3.org/1999/xlink" height="683">
  <!--Generated by the Batik Graphics2D SVG Generator-->
  <defs id="genericDefs" />
  <g>
    <defs id="defs1">
      <clipPath clipPathUnits="userSpaceOnUse" id="clipPath1">
        <path d="M-3 -3 L327 -3 L327 47 L-3 47 L-3 -3 Z" />
      </clipPath>
      <clipPath clipPathUnits="userSpaceOnUse" id="clipPath2">
        <path d="M0 0 L0 32 L320 32 L320 0 Z" />
      </clipPath>
      <clipPath clipPathUnits="userSpaceOnUse" id="clipPath3">
        <path d="M0 0 L320 0 L320 15 L0 15 L0 0 Z" />
      </clipPath>
      <clipPath clipPathUnits="userSpaceOnUse" id="clipPath4">
        <path d="M-3 -3 L387 -3 L387 97 L-3 97 L-3 -3 Z" />
      </clipPath>
      <clipPath clipPathUnits="userSpaceOnUse" id="clipPath5">
        <path d="M0 0 L0 82 L380 82 L380 0 Z" />
      </clipPath>
      <clipPath clipPathUnits="userSpaceOnUse" id="clipPath6">
        <path d="M0 0 L380 0 L380 15 L0 15 L0 0 Z" />
      </clipPath>
      <clipPath clipPathUnits="userSpaceOnUse" id="clipPath7">
        <path d="M-3 -3 L327 -3 L327 67 L-3 67 L-3 -3 Z" />
      </clipPath>
      <clipPath clipPathUnits="userSpaceOnUse" id="clipPath8">
        <path d="M0 0 L0 52 L320 52 L320 0 Z" />
      </clipPath>
      <clipPath clipPathUnits="userSpaceOnUse" id="clipPath9">
        <path d="M0 0 L0 37 L320 37 L320 0 Z" />
      </clipPath>
      <clipPath clipPathUnits="userSpaceOnUse" id="clipPath10">
        <path d="M0 0 L320 0 L320 30 L0 30 L0 0 Z" />
      </clipPath>
      <clipPath clipPathUnits="userSpaceOnUse" id="clipPath11">
        <path d="M-3 -17 L414 -17 L414 487 L-3 487 L-3 -17 Z" />
      </clipPath>
      <clipPath clipPathUnits="userSpaceOnUse" id="clipPath12">
        <path d="M0 0 L0 472 L400 472 L400 0 Z" />
      </clipPath>
      <clipPath clipPathUnits="userSpaceOnUse" id="clipPath13">
        <path d="M0 0 L400 0 L400 15 L0 15 L0 0 Z" />
      </clipPath>
      <clipPath clipPathUnits="userSpaceOnUse" id="clipPath14">
        <path d="M-3 -3 L47 -3 L47 28 L-3 28 L-3 -3 Z" />
      </clipPath>
      <clipPath clipPathUnits="userSpaceOnUse" id="clipPath15">
        <path d="M0 0 L40 0 L40 21 L0 21 L0 0 Z" />
      </clipPath>
      <clipPath clipPathUnits="userSpaceOnUse" id="clipPath16">
        <path d="M-3 -3 L87 -3 L87 87 L-3 87 L-3 -3 Z" />
      </clipPath>
      <clipPath clipPathUnits="userSpaceOnUse" id="clipPath17">
        <path d="M-3 -3 L47 -3 L47 47 L-3 47 L-3 -3 Z" />
      </clipPath>
      <clipPath clipPathUnits="userSpaceOnUse" id="clipPath18">
        <path d="M-3 -3 L527 -3 L527 117 L-3 117 L-3 -3 Z" />
      </clipPath>
      <clipPath clipPathUnits="userSpaceOnUse" id="clipPath19">
        <path d="M0 0 L0 102 L520 102 L520 0 Z" />
      </clipPath>
      <clipPath clipPathUnits="userSpaceOnUse" id="clipPath20">
        <path d="M0 0 L520 0 L520 15 L0 15 L0 0 Z" />
      </clipPath>
      <clipPath clipPathUnits="userSpaceOnUse" id="clipPath21">
        <path d="M0 0 L104 0 L104 423 L0 423 L0 0 Z" />
      </clipPath>
      <clipPath clipPathUnits="userSpaceOnUse" id="clipPath22">
        <path d="M0 0 L104 0 L104 303 L0 303 L0 0 Z" />
      </clipPath>
      <clipPath clipPathUnits="userSpaceOnUse" id="clipPath23">
        <path d="M0 0 L104 0 L104 153 L0 153 L0 0 Z" />
      </clipPath>
      <clipPath clipPathUnits="userSpaceOnUse" id="clipPath24">
        <path d="M0 0 L263 0 L263 104 L0 104 L0 0 Z" />
      </clipPath>
      <clipPath clipPathUnits="userSpaceOnUse" id="clipPath25">
        <path d="M0 0 L104 0 L104 173 L0 173 L0 0 Z" />
      </clipPath>
      <clipPath clipPathUnits="userSpaceOnUse" id="clipPath26">
        <path d="M-40 -40 L80 -40 L80 80 L-40 80 L-40 -40 Z" />
      </clipPath>
      <clipPath clipPathUnits="userSpaceOnUse" id="clipPath27">
        <path d="M-80 -80 L160 -80 L160 160 L-80 160 L-80 -80 Z" />
      </clipPath>
    </defs>
    <g style="fill:white; text-rendering:geometricPrecision; stroke:white;">
      <rect x="0" y="0" width="946" style="stroke:none;" height="683" />
    </g>
    <g transform="translate(622,489)" style="font-size:11; fill:rgb(122,207,245); text-rendering:geometricPrecision; font-family:sans-serif; stroke:rgb(122,207,245); font-weight:bold;">
      <rect x="0" y="0" width="320" style="clip-path:url(#clipPath1); stroke:none;" height="40" />
    </g>
    <g transform="translate(622,489)" style="font-size:11; stroke-linecap:butt; text-rendering:geometricPrecision; font-family:sans-serif; stroke-linejoin:round; font-weight:bold; stroke-miterlimit:0;">
      <rect x="0" y="0" width="320" style="clip-path:url(#clipPath1); fill:none;" height="40" />
      <line x1="0" x2="320" y1="15" style="clip-path:url(#clipPath1); fill:none;" y2="15" />
    </g>
    <g style="text-rendering:geometricPrecision; font-size:11; font-family:sans-serif;" transform="translate(622,504)">
      <text x="2" y="14" style="clip-path:url(#clipPath2); stroke:none;" xml:space="preserve">+checkStock(currentStock : int, ordered : int, maxStock : int) : int</text>
    </g>
    <g transform="translate(622,489)" style="text-rendering:geometricPrecision; font-size:11; font-weight:bold; font-family:sans-serif;">
      <text x="100" y="12" style="clip-path:url(#clipPath3); stroke:none;" xml:space="preserve">FullyStockOrderPlacer</text>
    </g>
    <g transform="translate(482,219)" style="font-size:11; fill:rgb(122,207,245); text-rendering:geometricPrecision; font-family:sans-serif; stroke:rgb(122,207,245); font-weight:bold;">
      <rect x="0" y="0" width="380" style="clip-path:url(#clipPath4); stroke:none;" height="90" />
    </g>
    <g transform="translate(482,219)" style="font-size:11; stroke-linecap:butt; text-rendering:geometricPrecision; font-family:sans-serif; stroke-linejoin:round; font-weight:bold; stroke-miterlimit:0;">
      <rect x="0" y="0" width="380" style="clip-path:url(#clipPath4); fill:none;" height="90" />
      <line x1="0" x2="380" y1="15" style="clip-path:url(#clipPath4); fill:none;" y2="15" />
    </g>
    <g transform="translate(482,234)" style="font-size:11; stroke-linecap:butt; text-rendering:geometricPrecision; font-family:sans-serif; stroke-linejoin:round; stroke-miterlimit:0;">
      <text x="2" y="14" style="clip-path:url(#clipPath5); stroke:none;" xml:space="preserve">~w : World</text>
      <line x1="0" x2="380" y1="19" style="clip-path:url(#clipPath5); fill:none; stroke-linejoin:bevel;" y2="19" />
      <text x="2" y="33" style="clip-path:url(#clipPath5); stroke:none;" xml:space="preserve">+checkStock(currentStockCount : int, orderedItems : int, maxStock : int) : int</text>
      <text x="2" y="48" style="clip-path:url(#clipPath5); stroke:none;" xml:space="preserve">+MealOrderPlacer(t : World)</text>
      <text x="2" y="63" style="clip-path:url(#clipPath5); stroke:none;" xml:space="preserve">-getNumberOfPatients() : int</text>
    </g>
    <g transform="translate(482,219)" style="font-size:11; stroke-linecap:butt; text-rendering:geometricPrecision; font-family:sans-serif; stroke-linejoin:round; font-weight:bold; stroke-miterlimit:0;">
      <text x="145" y="12" style="clip-path:url(#clipPath6); stroke:none;" xml:space="preserve">MealOrderPlacer</text>
    </g>
    <g transform="translate(582,369)" style="font-size:11; fill:rgb(122,207,245); text-rendering:geometricPrecision; font-family:sans-serif; stroke:rgb(122,207,245); font-weight:bold;">
      <rect x="0" y="0" width="320" style="clip-path:url(#clipPath7); stroke:none;" height="60" />
    </g>
    <g transform="translate(582,369)" style="font-size:11; stroke-linecap:butt; text-rendering:geometricPrecision; font-family:sans-serif; stroke-linejoin:round; font-weight:bold; stroke-miterlimit:0;">
      <rect x="0" y="0" width="320" style="clip-path:url(#clipPath7); fill:none;" height="60" />
      <line x1="0" x2="320" y1="15" style="clip-path:url(#clipPath7); fill:none;" y2="15" />
    </g>
    <g style="text-rendering:geometricPrecision; font-size:11; font-family:sans-serif;" transform="translate(582,384)">
      <text x="2" y="14" style="clip-path:url(#clipPath8); stroke:none;" xml:space="preserve">+NormalOrderPlacer()</text>
      <text x="2" y="29" style="clip-path:url(#clipPath8); stroke:none;" xml:space="preserve">+checkStock(currentStock : int, ordered : int, maxStock : int) : int</text>
    </g>
    <g transform="translate(582,369)" style="text-rendering:geometricPrecision; font-size:11; font-weight:bold; font-family:sans-serif;">
      <text x="109" y="12" style="clip-path:url(#clipPath3); stroke:none;" xml:space="preserve">NormalOrderPlacer</text>
    </g>
    <g transform="translate(602,109)" style="font-size:11; fill:rgb(122,207,245); text-rendering:geometricPrecision; font-family:sans-serif; stroke:rgb(122,207,245); font-weight:bold;">
      <rect x="0" y="0" width="320" style="clip-path:url(#clipPath7); stroke:none;" height="60" />
    </g>
    <g transform="translate(602,109)" style="font-size:11; stroke-linecap:butt; text-rendering:geometricPrecision; font-family:sans-serif; stroke-linejoin:round; font-weight:bold; stroke-miterlimit:0;">
      <rect x="0" y="0" width="320" style="clip-path:url(#clipPath7); fill:none;" height="60" />
      <line x1="0" x2="320" y1="30" style="clip-path:url(#clipPath7); fill:none;" y2="30" />
    </g>
    <g transform="translate(602,139)" style="font-size:11; stroke-linecap:butt; text-rendering:geometricPrecision; font-family:sans-serif; stroke-linejoin:round; font-style:italic; stroke-miterlimit:0;">
      <text x="2" y="14" style="clip-path:url(#clipPath9); stroke:none;" xml:space="preserve">+checkStock(currentStock : int, ordered : int, maxStock : int) : int</text>
    </g>
    <g transform="translate(602,109)" style="font-size:11; stroke-linecap:butt; text-rendering:geometricPrecision; font-family:sans-serif; stroke-linejoin:round; stroke-miterlimit:0;">
      <text x="125" y="12" style="clip-path:url(#clipPath10); stroke:none;" xml:space="preserve">&lt;&lt;Interface&gt;&gt;</text>
      <text x="128" y="27" style="clip-path:url(#clipPath10); stroke:none; font-weight:bold;" xml:space="preserve">OrderPlacer</text>
    </g>
    <g transform="translate(42,19)" style="font-size:11; fill:rgb(122,207,245); text-rendering:geometricPrecision; font-family:sans-serif; stroke:rgb(122,207,245); font-weight:bold;">
      <rect x="0" y="0" width="400" style="clip-path:url(#clipPath11); stroke:none;" height="480" />
    </g>
    <g transform="translate(42,19)" style="font-size:11; stroke-linecap:butt; text-rendering:geometricPrecision; font-family:sans-serif; stroke-linejoin:round; font-weight:bold; stroke-miterlimit:0;">
      <rect x="0" y="0" width="400" style="clip-path:url(#clipPath11); fill:none;" height="480" />
      <line x1="0" x2="400" y1="15" style="clip-path:url(#clipPath11); fill:none;" y2="15" />
    </g>
    <g transform="translate(42,34)" style="font-size:11; stroke-linecap:butt; text-rendering:geometricPrecision; font-family:sans-serif; stroke-linejoin:round; stroke-miterlimit:0;">
      <text x="2" y="14" style="clip-path:url(#clipPath12); stroke:none;" xml:space="preserve">-maxStock : int</text>
      <text x="2" y="29" style="clip-path:url(#clipPath12); stroke:none;" xml:space="preserve">-reserved : int</text>
      <text x="2" y="44" style="clip-path:url(#clipPath12); stroke:none;" xml:space="preserve">-prototype : I</text>
      <text x="2" y="59" style="clip-path:url(#clipPath12); stroke:none;" xml:space="preserve">-orderPlacer : OrderPlacer</text>
      <text x="2" y="74" style="clip-path:url(#clipPath12); stroke:none;" xml:space="preserve">-items : ItemQueue&lt;I&gt; = new LIFOQueue&lt;I&gt;()</text>
      <text x="2" y="89" style="clip-path:url(#clipPath12); stroke:none;" xml:space="preserve">#orderList : OrderList = new OrderList()</text>
      <text x="2" y="104" style="clip-path:url(#clipPath12); stroke:none;" xml:space="preserve">-observers : ArrayList&lt;StockObserver&gt; = new ArrayList&lt;StockObserver&gt;()</text>
      <text x="2" y="119" style="clip-path:url(#clipPath12); stroke:none;" xml:space="preserve">#currentTime : Time</text>
      <line x1="0" x2="400" y1="124" style="clip-path:url(#clipPath12); fill:none; stroke-linejoin:bevel;" y2="124" />
      <text x="2" y="138" style="clip-path:url(#clipPath12); stroke:none;" xml:space="preserve">~Stock(maxStock : int, o : OrderPlacer, prototype : I, timeSubject : TimeSubject)</text>
      <text x="2" y="153" style="clip-path:url(#clipPath12); stroke:none;" xml:space="preserve">-fillStock() : void</text>
      <text x="2" y="168" style="clip-path:url(#clipPath12); stroke:none;" xml:space="preserve">-getStockCount() : int</text>
      <text x="2" y="183" style="clip-path:url(#clipPath12); stroke:none;" xml:space="preserve">+getFreeStock() : int</text>
      <text x="2" y="198" style="clip-path:url(#clipPath12); stroke:none;" xml:space="preserve">-getAvailableSpace() : int</text>
      <text x="2" y="213" style="clip-path:url(#clipPath12); stroke:none;" xml:space="preserve">+getItem() : I</text>
      <text x="2" y="228" style="clip-path:url(#clipPath12); stroke:none;" xml:space="preserve">+reserveItem(count : int) : void</text>
      <text x="2" y="243" style="clip-path:url(#clipPath12); stroke:none;" xml:space="preserve">+removeReservation(count : int) : void</text>
      <text x="2" y="258" style="clip-path:url(#clipPath12); stroke:none;" xml:space="preserve">#restock() : void</text>
      <text x="2" y="273" style="clip-path:url(#clipPath12); stroke:none;" xml:space="preserve">-addItem(item : I) : void</text>
      <text x="2" y="288" style="clip-path:url(#clipPath12); stroke:none;" xml:space="preserve">+attach(o : StockObserver) : void</text>
      <text x="2" y="303" style="clip-path:url(#clipPath12); stroke:none;" xml:space="preserve">+detach(o : StockObserver) : void</text>
      <text x="2" y="318" style="clip-path:url(#clipPath12); stroke:none;" xml:space="preserve">~notifyObservers() : void</text>
      <text x="2" y="333" style="clip-path:url(#clipPath12); stroke:none;" xml:space="preserve">+getName() : String</text>
      <text x="2" y="348" style="clip-path:url(#clipPath12); stroke:none;" xml:space="preserve">-checkValidName(name : String) : boolean</text>
      <text x="2" y="363" style="clip-path:url(#clipPath12); stroke:none;" xml:space="preserve">-getOrderedCount() : int</text>
      <text x="2" y="378" style="clip-path:url(#clipPath12); stroke:none;" xml:space="preserve">~processOrder(order : Order, args : Argument []) : void</text>
      <text x="2" y="393" style="clip-path:url(#clipPath12); stroke:none;" xml:space="preserve">+timeUpdate(newTime : Time) : void</text>
      <text x="2" y="408" style="clip-path:url(#clipPath12); stroke:none;" xml:space="preserve">+holdsClass(clazz : Class) : boolean</text>
      <text x="2" y="423" style="clip-path:url(#clipPath12); stroke:none;" xml:space="preserve">~getArguments() : PublicArgument []</text>
      <text x="2" y="438" style="clip-path:url(#clipPath12); stroke:none;" xml:space="preserve">+getMaxStock()</text>
      <text x="2" y="453" style="clip-path:url(#clipPath12); stroke:none;" xml:space="preserve">+getOrderList()</text>
    </g>
    <g transform="translate(42,19)" style="font-size:11; stroke-linecap:butt; text-rendering:geometricPrecision; font-family:sans-serif; stroke-linejoin:round; font-weight:bold; stroke-miterlimit:0;">
      <text x="185" y="12" style="clip-path:url(#clipPath13); stroke:none;" xml:space="preserve">Stock</text>
    </g>
    <g transform="translate(412,2)" style="font-size:11; fill:white; text-rendering:geometricPrecision; font-family:sans-serif; stroke:white;">
      <rect x="0" y="0" width="39" style="clip-path:url(#clipPath14); stroke:none;" height="20" />
    </g>
    <g transform="translate(412,2)" style="font-size:11; stroke-linecap:butt; text-rendering:geometricPrecision; font-family:sans-serif; stroke-linejoin:bevel; stroke-dasharray:8,3; stroke-miterlimit:0;">
      <rect x="0" y="0" width="39" style="clip-path:url(#clipPath14); fill:none;" height="20" />
    </g>
    <g transform="translate(412,2)" style="font-size:11; stroke-linecap:butt; text-rendering:geometricPrecision; font-family:sans-serif; stroke-linejoin:bevel; stroke-dasharray:8,3; stroke-miterlimit:0;">
      <text x="3" y="15" style="clip-path:url(#clipPath15); stroke:none;" xml:space="preserve">I : Item</text>
    </g>
    <g transform="translate(2,569)" style="font-size:11; fill:rgb(122,207,245); text-rendering:geometricPrecision; font-family:sans-serif; stroke:rgb(122,207,245); font-weight:bold;">
      <rect x="0" y="0" width="520" style="clip-path:url(#clipPath18); stroke:none;" height="110" />
    </g>
    <g transform="translate(2,569)" style="font-size:11; stroke-linecap:butt; text-rendering:geometricPrecision; font-family:sans-serif; stroke-linejoin:round; font-weight:bold; stroke-miterlimit:0;">
      <rect x="0" y="0" width="520" style="clip-path:url(#clipPath18); fill:none;" height="110" />
      <line x1="0" x2="520" y1="15" style="clip-path:url(#clipPath18); fill:none;" y2="15" />
    </g>
    <g transform="translate(2,584)" style="font-size:11; stroke-linecap:butt; text-rendering:geometricPrecision; font-family:sans-serif; stroke-linejoin:round; stroke-miterlimit:0;">
      <text x="2" y="14" style="clip-path:url(#clipPath19); stroke:none;" xml:space="preserve">-world : World</text>
      <line x1="0" x2="520" y1="19" style="clip-path:url(#clipPath19); fill:none; stroke-linejoin:bevel;" y2="19" />
      <text x="2" y="33" style="clip-path:url(#clipPath19); stroke:none;" xml:space="preserve">~FoodStock(maxStock : int, o : OrderPlacer, prototype : Meal, timeSubject : TimeSubject, world : World)</text>
      <text x="2" y="48" style="clip-path:url(#clipPath19); stroke:none;" xml:space="preserve">+timeUpdate(newTime : Time) : void</text>
      <text x="2" y="63" style="clip-path:url(#clipPath19); stroke:none;" xml:space="preserve">-patientsEat() : void</text>
      <text x="2" y="78" style="clip-path:url(#clipPath19); stroke:none;" xml:space="preserve">#restock() : void</text>
    </g>
    <g transform="translate(2,569)" style="font-size:11; stroke-linecap:butt; text-rendering:geometricPrecision; font-family:sans-serif; stroke-linejoin:round; font-weight:bold; stroke-miterlimit:0;">
      <text x="231" y="12" style="clip-path:url(#clipPath20); stroke:none;" xml:space="preserve">FoodStock</text>
    </g>
    <g transform="translate(872,119)" style="font-size:11; stroke-linecap:butt; stroke-dashoffset:1; text-rendering:geometricPrecision; font-family:sans-serif; stroke-linejoin:round; stroke-dasharray:5;">
      <line x1="50" x2="50" y1="50" style="clip-path:url(#clipPath21); fill:none;" y2="369" />
    </g>
    <g transform="translate(872,119)" style="font-size:11; stroke-linecap:butt; fill:rgb(122,207,245); text-rendering:geometricPrecision; font-family:sans-serif; stroke-linejoin:round; stroke:rgb(122,207,245);">
      <polygon style="clip-path:url(#clipPath21); stroke:none;" points=" 50 50 44 62 56 62" />
      <polygon style="fill:none; clip-path:url(#clipPath21); stroke:black;" points=" 50 50 44 62 56 62" />
    </g>
    <g transform="translate(832,119)" style="font-size:11; stroke-linecap:butt; stroke-dashoffset:1; text-rendering:geometricPrecision; font-family:sans-serif; stroke-linejoin:round; stroke-dasharray:5;">
      <line x1="50" x2="50" y1="50" style="clip-path:url(#clipPath22); fill:none;" y2="249" />
    </g>
    <g transform="translate(832,119)" style="font-size:11; stroke-linecap:butt; fill:rgb(122,207,245); text-rendering:geometricPrecision; font-family:sans-serif; stroke-linejoin:round; stroke:rgb(122,207,245);">
      <polygon style="clip-path:url(#clipPath22); stroke:none;" points=" 50 50 44 62 56 62" />
      <polygon style="fill:none; clip-path:url(#clipPath22); stroke:black;" points=" 50 50 44 62 56 62" />
    </g>
    <g transform="translate(572,119)" style="font-size:11; stroke-linecap:butt; stroke-dashoffset:1; text-rendering:geometricPrecision; font-family:sans-serif; stroke-linejoin:round; stroke-dasharray:5;">
      <line x1="50" x2="50" y1="50" style="clip-path:url(#clipPath23); fill:none;" y2="99" />
    </g>
    <g transform="translate(572,119)" style="font-size:11; stroke-linecap:butt; fill:rgb(122,207,245); text-rendering:geometricPrecision; font-family:sans-serif; stroke-linejoin:round; stroke:rgb(122,207,245);">
      <polygon style="clip-path:url(#clipPath23); stroke:none;" points=" 50 50 44 62 56 62" />
      <polygon style="fill:none; clip-path:url(#clipPath23); stroke:black;" points=" 50 50 44 62 56 62" />
    </g>
    <g transform="translate(392,109)" style="font-size:11; stroke-linecap:butt; text-rendering:geometricPrecision; font-family:sans-serif; stroke-linejoin:round;">
      <line x1="50" x2="209" y1="50" style="clip-path:url(#clipPath24); fill:none;" y2="50" />
      <line x1="54" x2="63" y1="56" style="clip-path:url(#clipPath24); fill:none;" y2="44" />
      <line x1="54" x2="63" y1="44" style="clip-path:url(#clipPath24); fill:none;" y2="56" />
      <line x1="209" x2="197" y1="50" style="clip-path:url(#clipPath24); fill:none;" y2="44" />
      <line x1="209" x2="197" y1="50" style="clip-path:url(#clipPath24); fill:none;" y2="56" />
    </g>
    <g transform="translate(192,449)" style="font-size:11; stroke-linecap:butt; text-rendering:geometricPrecision; font-family:sans-serif; stroke-linejoin:round;">
      <line x1="50" x2="50" y1="50" style="clip-path:url(#clipPath25); fill:none;" y2="119" />
      <polygon style="fill:white; clip-path:url(#clipPath25); stroke:none;" points=" 50 50 44 62 56 62" />
      <polygon style="fill:none; clip-path:url(#clipPath25);" points=" 50 50 44 62 56 62" />
    </g>
    <g style="text-rendering:geometricPrecision; font-size:11; font-family:sans-serif;" transform="translate(562,159)">
      <text x="17" y="24" style="clip-path:url(#clipPath26); stroke:none;" xml:space="preserve">1</text>
    </g>
    <g style="text-rendering:geometricPrecision; font-size:11; font-family:sans-serif;" transform="translate(522,79)">
      <text x="11" y="44" style="clip-path:url(#clipPath27); stroke:none;" xml:space="preserve">orderPlacer</text>
    </g>
    <g style="fill:rgb(120,120,120); text-rendering:geometricPrecision; font-size:8; stroke:rgb(120,120,120);">
      <text xml:space="preserve" x="0" y="10" style="stroke:none;">Visual Paradigm for UML Standard Edition(K.U.Leuven)</text>
    </g>
  </g>
</svg>
